<mxfile modified="2023-06-05T13:10:07.563Z" host="app.diagrams.net" agent="Mozilla/5.0 (Windows NT 10.0; Win64; x64) AppleWebKit/537.36 (KHTML, like Gecko) Chrome/114.0.0.0 Safari/537.36 Edg/114.0.1823.37" etag="BLU9TSVKkdNXZfvd-Sfj" version="21.3.7" type="github">
  <diagram id="Ht1M8jgEwFfnCIfOTk4-" name="Page-1">
    <mxGraphModel dx="794" dy="509" grid="1" gridSize="10" guides="1" tooltips="1" connect="1" arrows="1" fold="1" page="1" pageScale="1" pageWidth="1169" pageHeight="827" math="0" shadow="0">
      <root>
        <mxCell id="0" />
        <mxCell id="1" parent="0" />
        <UserObject label="Actor" tooltip="" id="Wx7caHV7wsoMe98yt21g-11">
          <mxCell style="shape=umlActor;verticalLabelPosition=bottom;verticalAlign=top;outlineConnect=0;hachureGap=4;fontFamily=Helvetica;fontSize=20;rounded=0;labelBackgroundColor=none;html=1;" vertex="1" parent="1">
            <mxGeometry x="85" y="450" width="25" height="50" as="geometry" />
          </mxCell>
        </UserObject>
        <mxCell id="Wx7caHV7wsoMe98yt21g-18" value="用户" style="rounded=0;whiteSpace=wrap;html=1;strokeColor=#FFFFFF;" vertex="1" parent="1">
          <mxGeometry x="70" y="500" width="60" height="30" as="geometry" />
        </mxCell>
        <mxCell id="Wx7caHV7wsoMe98yt21g-20" value="" style="endArrow=none;html=1;rounded=0;" edge="1" parent="1">
          <mxGeometry width="50" height="50" relative="1" as="geometry">
            <mxPoint x="110" y="460" as="sourcePoint" />
            <mxPoint x="200" y="370" as="targetPoint" />
            <Array as="points" />
          </mxGeometry>
        </mxCell>
        <mxCell id="Wx7caHV7wsoMe98yt21g-21" value="登录" style="ellipse;whiteSpace=wrap;html=1;" vertex="1" parent="1">
          <mxGeometry x="190" y="350" width="80" height="40" as="geometry" />
        </mxCell>
        <mxCell id="Wx7caHV7wsoMe98yt21g-24" value="" style="edgeStyle=none;orthogonalLoop=1;jettySize=auto;html=1;rounded=0;strokeColor=default;endArrow=none;endFill=0;" edge="1" parent="1">
          <mxGeometry width="80" relative="1" as="geometry">
            <mxPoint x="110" y="470" as="sourcePoint" />
            <mxPoint x="210" y="450" as="targetPoint" />
            <Array as="points" />
          </mxGeometry>
        </mxCell>
        <mxCell id="Wx7caHV7wsoMe98yt21g-25" value="赛事" style="ellipse;whiteSpace=wrap;html=1;" vertex="1" parent="1">
          <mxGeometry x="190" y="430" width="80" height="40" as="geometry" />
        </mxCell>
        <mxCell id="Wx7caHV7wsoMe98yt21g-26" value="" style="edgeStyle=none;orthogonalLoop=1;jettySize=auto;html=1;rounded=0;endArrow=none;endFill=0;" edge="1" parent="1" target="Wx7caHV7wsoMe98yt21g-27">
          <mxGeometry width="80" relative="1" as="geometry">
            <mxPoint x="110" y="474.5" as="sourcePoint" />
            <mxPoint x="190" y="520" as="targetPoint" />
            <Array as="points" />
          </mxGeometry>
        </mxCell>
        <mxCell id="Wx7caHV7wsoMe98yt21g-27" value="荣誉榜" style="ellipse;whiteSpace=wrap;html=1;" vertex="1" parent="1">
          <mxGeometry x="195" y="500" width="75" height="50" as="geometry" />
        </mxCell>
        <mxCell id="Wx7caHV7wsoMe98yt21g-28" value="" style="edgeStyle=none;orthogonalLoop=1;jettySize=auto;html=1;rounded=0;endArrow=none;endFill=0;" edge="1" parent="1" target="Wx7caHV7wsoMe98yt21g-29">
          <mxGeometry width="80" relative="1" as="geometry">
            <mxPoint x="110" y="490" as="sourcePoint" />
            <mxPoint x="200" y="590" as="targetPoint" />
            <Array as="points" />
          </mxGeometry>
        </mxCell>
        <mxCell id="Wx7caHV7wsoMe98yt21g-29" value="首页" style="ellipse;whiteSpace=wrap;html=1;" vertex="1" parent="1">
          <mxGeometry x="197.5" y="580" width="70" height="50" as="geometry" />
        </mxCell>
        <mxCell id="Wx7caHV7wsoMe98yt21g-30" value="" style="edgeStyle=none;orthogonalLoop=1;jettySize=auto;html=1;rounded=0;endArrow=none;endFill=0;" edge="1" parent="1" target="Wx7caHV7wsoMe98yt21g-31">
          <mxGeometry width="80" relative="1" as="geometry">
            <mxPoint x="110" y="500" as="sourcePoint" />
            <mxPoint x="200" y="680" as="targetPoint" />
            <Array as="points" />
          </mxGeometry>
        </mxCell>
        <mxCell id="Wx7caHV7wsoMe98yt21g-31" value="我的" style="ellipse;whiteSpace=wrap;html=1;" vertex="1" parent="1">
          <mxGeometry x="195" y="660" width="67.5" height="40" as="geometry" />
        </mxCell>
        <mxCell id="Wx7caHV7wsoMe98yt21g-32" value="" style="edgeStyle=none;orthogonalLoop=1;jettySize=auto;html=1;rounded=0;endArrow=none;endFill=0;" edge="1" parent="1" target="Wx7caHV7wsoMe98yt21g-33">
          <mxGeometry width="80" relative="1" as="geometry">
            <mxPoint x="110" y="499" as="sourcePoint" />
            <mxPoint x="170" y="740" as="targetPoint" />
            <Array as="points" />
          </mxGeometry>
        </mxCell>
        <mxCell id="Wx7caHV7wsoMe98yt21g-33" value="注册" style="ellipse;whiteSpace=wrap;html=1;" vertex="1" parent="1">
          <mxGeometry x="160" y="730" width="70" height="50" as="geometry" />
        </mxCell>
        <mxCell id="Wx7caHV7wsoMe98yt21g-46" value="" style="endArrow=none;html=1;rounded=0;dashed=1;endFill=0;" edge="1" parent="1">
          <mxGeometry relative="1" as="geometry">
            <mxPoint x="267.5" y="360" as="sourcePoint" />
            <mxPoint x="370" y="330" as="targetPoint" />
          </mxGeometry>
        </mxCell>
        <mxCell id="Wx7caHV7wsoMe98yt21g-47" value="include" style="edgeLabel;resizable=0;html=1;align=center;verticalAlign=middle;" connectable="0" vertex="1" parent="Wx7caHV7wsoMe98yt21g-46">
          <mxGeometry relative="1" as="geometry" />
        </mxCell>
      </root>
    </mxGraphModel>
  </diagram>
</mxfile>
